<?xml version="1.0" encoding="UTF-8" standalone="no"?>
<!-- Создано Microsoft Visio 11.0, Экспорт SVG, версия 1.0 DevopsRU2.svg Layer_1 -->

<svg
   xmlns:v="http://schemas.microsoft.com/visio/2003/SVGExtensions/"
   xmlns:dc="http://purl.org/dc/elements/1.1/"
   xmlns:cc="http://creativecommons.org/ns#"
   xmlns:rdf="http://www.w3.org/1999/02/22-rdf-syntax-ns#"
   xmlns:svg="http://www.w3.org/2000/svg"
   xmlns="http://www.w3.org/2000/svg"
   xmlns:sodipodi="http://sodipodi.sourceforge.net/DTD/sodipodi-0.dtd"
   xmlns:inkscape="http://www.inkscape.org/namespaces/inkscape"
   width="8.5000277in"
   height="8.1699028in"
   viewBox="0 0 612.00199 588.233"
   xml:space="preserve"
   class="st10"
   id="svg2"
   version="1.1"
   inkscape:version="0.91 r13725"
   sodipodi:docname="devops.svg"
   style="font-size:12px;overflow:visible;color-interpolation-filters:sRGB;fill:none;fill-rule:evenodd;stroke-linecap:square;stroke-miterlimit:3"><metadata
     id="metadata94"><rdf:RDF><cc:Work
         rdf:about=""><dc:format>image/svg+xml</dc:format><dc:type
           rdf:resource="http://purl.org/dc/dcmitype/StillImage" /><dc:title></dc:title></cc:Work></rdf:RDF></metadata><defs
     id="defs92" /><sodipodi:namedview
     pagecolor="#ffffff"
     bordercolor="#666666"
     borderopacity="1"
     objecttolerance="10"
     gridtolerance="10"
     guidetolerance="10"
     inkscape:pageopacity="0"
     inkscape:pageshadow="2"
     inkscape:window-width="1280"
     inkscape:window-height="961"
     id="namedview90"
     showgrid="false"
     fit-margin-top="0"
     fit-margin-left="0"
     fit-margin-right="0"
     fit-margin-bottom="0"
     inkscape:zoom="0.62424242"
     inkscape:cx="375.2212"
     inkscape:cy="324.99958"
     inkscape:current-layer="g6"
     inkscape:window-x="1272"
     inkscape:window-y="46"
     inkscape:window-maximized="1" /><v:documentProperties
     v:langID="1033"
     v:metric="true"
     v:viewMarkup="false" /><style
     type="text/css"
     id="style4"><![CDATA[
		.st1 {fill:#98002e;stroke:none;stroke-linecap:butt;stroke-width:1.53}
		.st2 {fill:#ffffff;stroke:#ffff00;stroke-linecap:butt;stroke-width:1.92507}
		.st3 {fill:#f15a24;stroke:none;stroke-linecap:butt;stroke-width:1.53}
		.st4 {fill:#3fa9f5;stroke:none;stroke-linecap:butt;stroke-width:1.53}
		.st5 {fill:#9163aa;stroke:none;stroke-linecap:butt;stroke-width:1.53}
		.st6 {fill:none;stroke:none;stroke-linecap:butt;stroke-width:0.75}
		.st7 {fill:#000000;font-family:Calibri;font-size:4.00001em;font-stretch:condensed}
		.st8 {fill:#000000;font-family:Calibri;font-size:4.00001em;font-stretch:extra-condensed}
		.st9 {fill:#000000;font-family:Calibri;font-size:4.00001em;font-stretch:normal}
		.st10 {fill:none;fill-rule:evenodd;font-size:12px;overflow:visible;stroke-linecap:square;stroke-miterlimit:3}
	]]></style><g
     v:mID="0"
     v:index="1"
     v:groupContext="foregroundPage"
     id="g6"
     transform="translate(0,-102.52427)"><title
       id="title8">Layer_1</title><v:pageProperties
       v:drawingScale="1"
       v:pageScale="1"
       v:drawingUnits="19"
       v:shadowOffsetX="9"
       v:shadowOffsetY="-9" /><g
       id="shape1-1"
       v:mID="1"
       v:groupContext="shape"
       transform="translate(238.068,-350.865)"
       inkscape:export-filename=".\devops.png"
       inkscape:export-xdpi="300"
       inkscape:export-ydpi="300"><title
         id="title11">Лист.1</title><path
         d="m 67.93,792 c 5.51,-4.28 10.71,-9.03 15.76,-14.08 28.46,-28.45 46.36,-64.41 52.17,-103.42 -21.26,-8.42 -44.21,-12.86 -67.93,-12.86 -23.71,0 -46.51,4.44 -67.93,12.86 5.81,39.01 23.72,74.97 52.17,103.42 5.05,4.9 10.25,9.64 15.76,14.08 z"
         class="st1"
         id="path13"
         inkscape:connector-curvature="0"
         style="fill:#98002e;stroke:none;stroke-width:1.52999997;stroke-linecap:butt" /></g><g
       id="group2-3"
       transform="translate(260.135,-424.764)"
       v:mID="2"
       v:groupContext="group"
       inkscape:export-filename=".\devops.png"
       inkscape:export-xdpi="300"
       inkscape:export-ydpi="300"><title
         id="title16">Лист.2</title><g
         id="shape3-4"
         v:mID="3"
         v:groupContext="shape"
         transform="translate(0,-7.82117)"><title
           id="title19">Лист.3</title><path
           d="m 14.67,780.05 c -0.03,3.91 -0.91,6.74 -2.47,8.91 -1.72,1.95 -4.12,3.04 -7.19,3.04 l -5.11,0 0.2,-23.46 5.63,0 c 2.9,0 5.11,1.08 6.63,3.04 1.52,1.95 2.34,4.99 2.31,8.47 z m -2.22,0.22 c 0.03,-3.04 -0.63,-5.43 -1.81,-6.95 -1.18,-1.52 -3.05,-2.39 -5.27,-2.39 l -3.07,0 -0.17,18.68 2.56,0 c 2.56,0 4.45,-0.87 5.82,-2.39 1.21,-1.52 1.92,-3.91 1.94,-6.95 z"
           class="st2"
           id="path21"
           inkscape:connector-curvature="0"
           style="fill:#ffffff;stroke:#ffff00;stroke-width:1.92507005;stroke-linecap:butt" /></g><g
         id="shape4-6"
         v:mID="4"
         v:groupContext="shape"
         transform="translate(17.7122,-7.38666)"><title
           id="title24">Лист.4</title><path
           d="m 6.4,792 c -2.05,0 -3.57,-0.87 -4.75,-2.39 -1.18,-1.52 -1.68,-3.69 -1.65,-6.52 0.02,-2.82 0.56,-4.99 1.76,-6.73 1.21,-1.74 2.58,-2.39 4.46,-2.39 1.71,0 3.07,0.65 4.08,2.17 1.01,1.52 1.5,3.26 1.48,5.65 l -0.01,1.74 -9.56,0 c -0.01,1.95 0.48,3.69 1.15,4.78 0.85,1.08 1.87,1.52 3.23,1.52 1.54,0 2.91,-0.44 4.45,-1.09 l -0.02,2.39 c -0.69,0.44 -1.38,0.65 -2.06,0.87 -0.85,-0.22 -1.53,0 -2.56,0 z M 6.03,775.92 c -1.02,0 -2.05,0.44 -2.57,1.31 -0.69,0.87 -1.04,2.17 -1.23,3.91 l 7.17,0 c 0.01,-1.74 -0.32,-3.04 -0.82,-3.91 -0.5,-0.87 -1.52,-1.31 -2.55,-1.31 z"
           class="st2"
           id="path26"
           inkscape:connector-curvature="0"
           style="fill:#ffffff;stroke:#ffff00;stroke-width:1.92507005;stroke-linecap:butt" /></g><g
         id="shape5-8"
         v:mID="5"
         v:groupContext="shape"
         transform="translate(30.5066,-7.60391)"><title
           id="title29">Лист.5</title><path
           d="m 5.21,791.78 -5.13,-17.59 2.22,0 2.8,10.42 c 0.66,2.39 0.99,3.91 1.16,4.78 l 0.17,0 c 0.17,-0.65 0.35,-1.74 0.88,-3.47 0.53,-1.74 1.59,-5.65 3.34,-11.52 l 2.22,0 -5.44,17.6 -2.22,0 0,-0.22 z"
           class="st2"
           id="path31"
           inkscape:connector-curvature="0"
           style="fill:#ffffff;stroke:#ffff00;stroke-width:1.92507005;stroke-linecap:butt" /></g><g
         id="shape6-10"
         v:mID="6"
         v:groupContext="shape"
         transform="translate(45.0319,-7.38666)"><title
           id="title34">Лист.6</title><path
           d="m 16.89,779.83 c -0.03,3.7 -0.74,6.74 -2.3,8.91 -1.55,2.17 -3.61,3.26 -6.17,3.26 -2.73,0 -4.76,-1.09 -6.28,-3.26 -1.52,-2.17 -2.17,-5 -2.14,-8.91 0.04,-3.91 0.74,-6.73 2.3,-8.9 1.55,-2.18 3.61,-3.05 6.34,-3.05 2.55,0 4.76,1.09 6.11,3.26 1.52,1.96 2.17,5 2.14,8.69 z m -14.5,0 c -0.03,3.26 0.46,5.65 1.47,7.17 1.01,1.52 2.54,2.39 4.58,2.39 2.05,0 3.59,-0.87 4.63,-2.39 1.04,-1.52 1.57,-4.12 1.6,-7.17 0.03,-3.04 -0.46,-5.43 -1.47,-7.17 -1.01,-1.73 -2.54,-2.39 -4.59,-2.39 -2.04,0 -3.58,0.87 -4.62,2.39 -1.04,1.53 -1.57,4.13 -1.6,7.17 z"
           class="st2"
           id="path36"
           inkscape:connector-curvature="0"
           style="fill:#ffffff;stroke:#ffff00;stroke-width:1.92507005;stroke-linecap:butt" /></g><g
         id="shape7-12"
         v:mID="7"
         v:groupContext="shape"
         transform="translate(65.7846,0)"><title
           id="title39">Лист.7</title><path
           d="m 6.26,784.61 c -0.85,0 -1.7,-0.21 -2.38,-0.65 -0.68,-0.43 -1.36,-1.08 -1.86,-1.95 l -0.17,0 c 0.16,1.08 0.15,1.95 0.15,2.82 l -0.07,7.17 -2.05,0 0.23,-25.42 1.71,0 0.32,2.39 0.17,0 c 0.52,-0.87 1.21,-1.74 1.89,-2.17 0.69,-0.44 1.54,-0.65 2.4,-0.65 1.87,0 3.23,0.87 4.24,2.39 1.01,1.52 1.5,3.91 1.48,6.73 -0.03,2.83 -0.56,5.22 -1.6,6.74 -1.21,1.73 -2.58,2.6 -4.46,2.6 z m -0.2,-16.07 c -1.36,0 -2.39,0.43 -3.08,1.52 -0.69,1.08 -1.05,2.6 -1.07,4.78 l 0,0.65 c -0.02,2.39 0.3,4.13 0.98,5.21 0.67,1.09 1.69,1.52 3.05,1.52 1.2,0 2.05,-0.65 2.75,-1.73 0.69,-1.31 1.05,-2.83 1.06,-5 0.02,-2.17 -0.3,-3.91 -0.97,-5 -0.5,-1.3 -1.35,-1.95 -2.72,-1.95 z"
           class="st2"
           id="path41"
           inkscape:connector-curvature="0"
           style="fill:#ffffff;stroke:#ffff00;stroke-width:1.92507005;stroke-linecap:butt" /></g><g
         id="shape8-14"
         v:mID="8"
         v:groupContext="shape"
         transform="translate(80.6568,-7.60391)"><title
           id="title44">Лист.8</title><path
           d="m 9.69,787 c -0.02,1.74 -0.54,2.83 -1.4,3.7 -1.03,0.87 -2.23,1.3 -4.1,1.3 -1.88,0 -3.24,-0.43 -4.26,-1.09 l 0.02,-2.39 c 0.68,0.44 1.36,0.87 2.04,1.09 0.68,0.22 1.53,0.43 2.21,0.43 1.03,0 1.88,-0.21 2.57,-0.65 0.68,-0.43 0.86,-1.08 0.87,-1.95 0,-0.65 -0.16,-1.31 -0.67,-1.74 -0.51,-0.43 -1.35,-1.09 -2.71,-1.74 -1.36,-0.65 -2.21,-1.08 -2.72,-1.52 -0.51,-0.43 -1.01,-0.87 -1.18,-1.52 -0.33,-0.65 -0.33,-1.3 -0.32,-1.96 0.01,-1.52 0.53,-2.6 1.39,-3.47 0.86,-0.87 2.23,-1.3 3.77,-1.3 1.53,0 2.89,0.43 4.25,1.08 l -0.7,2.17 c -1.36,-0.65 -2.55,-1.08 -3.74,-1.08 -1.03,0 -1.71,0.21 -2.23,0.65 -0.51,0.43 -0.69,0.87 -0.69,1.74 -0.01,0.43 0.16,0.87 0.33,1.3 0.16,0.44 0.5,0.65 0.84,0.87 0.34,0.22 1.19,0.65 2.38,1.3 1.7,0.66 2.71,1.52 3.22,2.39 0.51,0.22 0.84,1.31 0.83,2.39 z"
           class="st2"
           id="path46"
           inkscape:connector-curvature="0"
           style="fill:#ffffff;stroke:#ffff00;stroke-width:1.92507005;stroke-linecap:butt" /></g></g><g
       id="shape9-16"
       v:mID="9"
       v:groupContext="shape"
       transform="translate(0,-304.812)"
       inkscape:export-filename=".\devops.png"
       inkscape:export-xdpi="300"
       inkscape:export-ydpi="300"><title
         id="title49">Лист.9</title><path
         d="m 190.94,419.29 c 48.51,0 94.25,18.97 128.52,53.25 34.28,34.27 53.25,80.01 53.25,128.52 0,48.5 -18.97,94.24 -53.25,128.52 -34.27,34.27 -80.01,53.24 -128.52,53.24 -48.5,0 -94.24,-18.97 -128.52,-53.24 C 28.15,695.3 9.18,649.71 9.18,601.06 c 0,-48.66 18.97,-94.25 53.24,-128.52 34.43,-34.28 80.02,-53.25 128.52,-53.25 z m 0,-9.18 C 85.53,410.11 0,495.64 0,601.06 0,706.47 85.53,792 190.94,792 c 105.42,0 190.95,-85.53 190.95,-190.94 0,-105.42 -85.38,-190.95 -190.95,-190.95 z"
         class="st3"
         id="path51"
         inkscape:connector-curvature="0"
         style="fill:#f15a24;stroke:none;stroke-width:1.52999997;stroke-linecap:butt" /></g><g
       id="shape10-18"
       v:mID="10"
       v:groupContext="shape"
       transform="translate(230.112,-304.812)"
       inkscape:export-filename=".\devops.png"
       inkscape:export-xdpi="300"
       inkscape:export-ydpi="300"><title
         id="title54">Лист.10</title><path
         d="m 190.94,419.29 c 48.51,0 94.25,18.97 128.52,53.25 34.28,34.27 53.25,80.01 53.25,128.52 0,48.5 -18.97,94.24 -53.25,128.52 -34.27,34.27 -80.01,53.24 -128.52,53.24 -48.5,0 -94.24,-18.97 -128.52,-53.24 C 28.15,695.3 9.18,649.56 9.18,601.06 c 0,-48.51 18.97,-94.25 53.24,-128.52 34.28,-34.28 79.87,-53.25 128.52,-53.25 z m 0,-9.18 C 85.53,410.11 0,495.64 0,601.06 0,706.47 85.53,792 190.94,792 c 105.42,0 190.95,-85.37 190.95,-190.94 0,-105.57 -85.53,-190.95 -190.95,-190.95 z"
         class="st4"
         id="path56"
         inkscape:connector-curvature="0"
         style="fill:#3fa9f5;stroke:none;stroke-width:1.52999997;stroke-linecap:butt" /></g><g
       id="shape11-20"
       v:mID="11"
       v:groupContext="shape"
       transform="translate(115.056,-105.3)"
       inkscape:export-filename=".\devops.png"
       inkscape:export-xdpi="300"
       inkscape:export-ydpi="300"><title
         id="title59">Лист.11</title><path
         d="m 190.94,419.14 c 48.51,0 94.25,18.97 128.52,53.24 34.28,34.27 53.25,80.02 53.25,128.52 0,48.5 -18.97,94.25 -53.25,128.52 -34.27,34.27 -80.01,53.25 -128.52,53.25 -48.5,0 -94.24,-18.97 -128.52,-53.25 C 28.15,695.15 9.18,649.4 9.18,600.9 c 0,-48.5 18.97,-94.25 53.24,-128.52 34.28,-34.27 80.02,-53.24 128.52,-53.24 z m 0,-9.18 C 85.53,409.96 0,495.49 0,600.9 0,706.32 85.53,792 190.94,792 c 105.42,0 190.95,-85.53 190.95,-190.94 0,-105.42 -85.53,-191.1 -190.95,-191.1 z"
         class="st5"
         id="path61"
         inkscape:connector-curvature="0"
         style="fill:#9163aa;stroke:none;stroke-width:1.52999997;stroke-linecap:butt" /></g><g
       id="shape12-22"
       v:mID="12"
       v:groupContext="shape"
       transform="translate(25.1397,-469.40929)"
       inkscape:export-filename=".\devops.png"
       inkscape:export-xdpi="300"
       inkscape:export-ydpi="300"><title
         id="title64">Лист.12</title><desc
         id="desc66">Разработка</desc><v:textBlock
         v:margins="rect(0,0,0,0)" /><v:textRect
         cx="177.828"
         cy="765.653"
         width="355.66"
         height="52.6946" /><rect
         x="0"
         y="739.30499"
         width="355.655"
         height="52.694599"
         class="st6"
         id="rect68"
         style="fill:none;stroke:none;stroke-width:0.75;stroke-linecap:butt" /><text
         x="36.090122"
         y="777.71094"
         class="st7"
         v:langID="1049"
         id="text70"
         style="font-stretch:condensed;font-size:48.00012207px;font-family:Calibri;overflow:visible;color-interpolation-filters:sRGB;fill:#000000;fill-rule:evenodd;stroke-linecap:square;stroke-miterlimit:3">development<v:paragraph /><v:tabList /></text>
</g><g
       id="shape13-25"
       v:mID="13"
       v:groupContext="shape"
       transform="translate(306.76425,-493.24234)"
       inkscape:export-filename=".\devops.png"
       inkscape:export-xdpi="300"
       inkscape:export-ydpi="300"><title
         id="title73">Лист.13</title><desc
         id="desc75">Тестирование</desc><v:textBlock
         v:margins="rect(0,0,0,0)" /><v:textRect
         cx="104.531"
         cy="765.653"
         width="209.07"
         height="52.6946" /><rect
         x="0"
         y="739.30499"
         width="209.061"
         height="52.694599"
         class="st6"
         id="rect77"
         style="fill:none;stroke:none;stroke-width:0.75;stroke-linecap:butt" /><text
         x="48.456642"
         y="800.75879"
         class="st8"
         v:langID="1049"
         id="text79"
         style="font-stretch:extra-condensed;font-size:48.00012207px;font-family:Calibri;overflow:visible;color-interpolation-filters:sRGB;fill:#000000;fill-rule:evenodd;stroke-linecap:square;stroke-miterlimit:3">testing<v:paragraph /><v:tabList /></text>
</g><g
       id="shape14-28"
       v:mID="14"
       v:groupContext="shape"
       transform="matrix(0.9999971,-0.00240897,0.00240897,0.9999971,142.14722,-271.57605)"
       inkscape:export-filename=".\devops.png"
       inkscape:export-xdpi="300"
       inkscape:export-ydpi="300"><title
         id="title82">Лист.14</title><desc
         id="desc84">Эксплуатация</desc><v:textBlock
         v:margins="rect(0,0,0,0)" /><v:textRect
         cx="162.005"
         cy="767.648"
         width="324.01"
         height="48.7031" /><rect
         x="0"
         y="743.297"
         width="324.01001"
         height="48.703098"
         class="st6"
         id="rect86"
         style="fill:none;stroke:none;stroke-width:0.75;stroke-linecap:butt" /><text
         x="48.749901"
         y="782.12305"
         class="st9"
         v:langID="1049"
         id="text88"
         style="font-stretch:normal;font-size:48.00012207px;font-family:Calibri;fill:#000000">exhumation<v:paragraph
   v:horizAlign="1" /><v:tabList /></text>
</g></g></svg>